<?xml version="1.0" standalone="no"?>
<!DOCTYPE svg PUBLIC "-//W3C//DTD SVG 20010904//EN"
 "http://www.w3.org/TR/2001/REC-SVG-20010904/DTD/svg10.dtd">
<svg version="1.0" xmlns="http://www.w3.org/2000/svg"
 width="252.000000pt" height="105.000000pt" viewBox="0 0 252.000000 105.000000"
 preserveAspectRatio="xMidYMid meet">
<metadata>
Created by potrace 1.16, written by Peter Selinger 2001-2019
</metadata>
<g transform="translate(0.000000,105.000000) scale(0.100000,-0.100000)"
fill="#000000" stroke="none">
<path d="M970 875 c0 -8 5 -15 10 -15 6 0 10 -107 10 -300 l0 -300 45 0 45 0
0 110 c0 61 4 110 8 110 19 0 42 -39 53 -90 6 -30 19 -71 28 -90 38 -82 143
-56 165 43 8 33 -13 37 -32 7 -28 -45 -87 -10 -126 75 -14 31 -32 58 -41 61
-8 3 -15 9 -15 13 0 4 41 38 90 74 90 67 111 100 74 114 -22 8 -44 -15 -24
-27 8 -5 12 -11 9 -14 -15 -15 -175 -126 -181 -126 -5 0 -8 79 -8 175 0 162
-1 175 -19 185 -31 16 -91 13 -91 -5z"/>
<path d="M140 801 c0 -5 7 -14 16 -21 9 -9 14 -26 12 -49 -2 -27 -8 -36 -26
-41 -31 -7 -29 -24 3 -28 l25 -3 0 -141 c0 -154 10 -205 47 -240 36 -34 104
-32 140 4 31 32 27 43 -11 28 -66 -25 -96 47 -96 232 l0 118 50 0 c37 0 50 4
50 14 0 11 -14 16 -47 18 l-48 3 -3 45 c-2 24 -8 50 -14 57 -12 15 -98 18 -98
4z"/>
<path d="M1390 801 c0 -5 7 -14 16 -21 9 -9 14 -26 12 -49 -2 -27 -8 -36 -26
-41 -13 -3 -23 -9 -23 -15 0 -5 10 -12 23 -15 23 -6 23 -9 28 -166 5 -172 12
-195 65 -230 32 -21 89 -13 121 17 28 27 22 42 -11 29 -66 -25 -88 24 -93 208
l-4 142 51 0 c39 0 51 4 51 15 0 11 -12 15 -50 15 l-50 0 0 48 c0 26 -5 53
-12 60 -14 14 -98 17 -98 3z"/>
<path d="M705 685 c-127 -45 -168 -242 -76 -364 45 -59 131 -85 198 -60 35 13
80 55 100 93 22 42 2 50 -27 11 -32 -44 -63 -60 -112 -59 -48 2 -93 41 -109
95 -18 58 -8 192 17 225 30 41 49 50 81 38 24 -8 63 -53 76 -87 3 -8 15 -2 33
15 l28 27 -24 26 c-21 22 -104 56 -134 55 -6 -1 -29 -7 -51 -15z"/>
<path d="M406 681 c-3 -5 1 -14 9 -21 12 -10 15 -47 15 -206 l0 -194 46 0 45
0 -3 205 c-2 170 -6 207 -18 215 -19 12 -87 13 -94 1z"/>
<path d="M1828 676 c-61 -17 -93 -38 -125 -87 -22 -34 -27 -55 -31 -123 -7
-132 34 -201 126 -213 39 -5 112 19 112 38 0 5 5 9 10 9 6 0 10 -9 10 -20 0
-17 7 -20 46 -20 l45 0 -3 205 c-2 170 -6 207 -18 215 -21 13 -116 11 -172 -4z
m100 -146 c4 -150 -1 -180 -34 -220 -30 -35 -81 -41 -106 -12 -40 48 -50 147
-23 238 20 70 84 126 135 121 l25 -2 3 -125z"/>
<path d="M2230 670 c-67 -23 -124 -80 -140 -141 -20 -71 -8 -172 25 -219 45
-66 136 -78 200 -28 l28 22 -5 -83 c-6 -95 -26 -134 -74 -139 -23 -2 -34 4
-50 25 -12 16 -24 38 -28 51 -10 29 -17 28 -50 -7 l-28 -29 35 -26 c68 -52
161 -56 217 -10 56 48 64 86 68 336 2 154 0 233 -8 247 -9 18 -20 21 -73 21
-34 -1 -87 -9 -117 -20z m108 -169 l-3 -160 -30 -31 c-24 -25 -36 -30 -64 -28
-54 5 -75 49 -74 154 0 66 5 92 24 131 27 54 78 93 121 93 l30 0 -4 -159z"/>
</g>
</svg>
